<?xml version="1.0" encoding="UTF-8"?>
<svg version="1.1" xmlns="http://www.w3.org/2000/svg" width="2010" height="1519">
<path d="M0 0 C0.98500488 0.16097168 1.97000977 0.32194336 2.98486328 0.48779297 C38.07930721 6.45826464 69.4602332 20.55022096 99 40 C100.18916016 39.14341797 100.18916016 39.14341797 101.40234375 38.26953125 C134.08447568 15.31840665 172.42153407 2.20462176 212 -2 C212.78624756 -2.0928125 213.57249512 -2.185625 214.38256836 -2.28125 C223.38108806 -3.24430228 232.39751237 -3.24359597 241.4375 -3.25 C242.72764511 -3.25101212 242.72764511 -3.25101212 244.04385376 -3.25204468 C259.53637723 -3.23286078 274.65851001 -2.2996391 290 0 C291.1230957 0.16628906 292.24619141 0.33257812 293.40332031 0.50390625 C371.24462592 12.40826904 454.42962534 45.3167071 515 96 C515.7731958 96.64001953 515.7731958 96.64001953 516.56201172 97.29296875 C522.46065752 102.17743741 528.27654805 107.06803033 533.59375 112.59375 C535.11076273 114.16971004 535.11076273 114.16971004 537.5 115.9375 C540.3776971 118.31160011 542.66134308 120.93298148 545.07421875 123.76953125 C546.33705565 125.23216791 547.63091857 126.66869813 548.95703125 128.07421875 C568.0825753 148.40619786 586.17944648 175.62093482 593 203 C593.59643311 203.0424585 594.19286621 203.08491699 594.80737305 203.12866211 C601.33926153 203.67673501 607.48257793 204.88342332 613.8125 206.5625 C614.80878418 206.82643555 615.80506836 207.09037109 616.83154297 207.36230469 C655.84254564 218.03926001 690.28509249 239.11490743 721 265 C722.00587158 265.83523193 723.01174316 266.67046387 724.0480957 267.53100586 C732.7228962 274.79363501 740.83389875 282.52244465 748.80639648 290.5456543 C750.82117835 292.57122482 752.84653275 294.58578384 754.87304688 296.59960938 C761.33913531 303.05947671 767.5483607 309.53809645 773.19897461 316.73364258 C774.96494915 318.95589304 776.82097247 321.04386373 778.75 323.125 C833.20308726 383.9399331 864.5596518 465.43248825 860.86376953 547.00683594 C860.4837802 553.03714817 859.8255793 559.01540174 859 565 C858.87641113 565.8981543 858.75282227 566.79630859 858.62548828 567.72167969 C854.14538316 598.88148959 844.50620553 633.00605529 827.60546875 659.890625 C825.7972478 662.79746327 825.7972478 662.79746327 826.02734375 665.5703125 C827.23754268 668.59337971 828.78653196 671.14327617 830.5625 673.875 C849.23046999 703.47814736 859.46168705 736.61565705 865 771 C865.2477417 772.47823242 865.2477417 772.47823242 865.50048828 773.98632812 C879.011488 857.98646289 855.5486933 947.14023859 785.58544922 1083.96875 C782.82411618 1087.72886307 779.94539108 1091.38151306 777 1095 C776.58218262 1095.51401367 776.16436523 1096.02802734 775.73388672 1096.55761719 C759.76650992 1116.09262042 742.32369655 1133.0575061 722 1148 C720.59041016 1149.03640625 720.59041016 1149.03640625 719.15234375 1150.09375 C716.79727823 1151.77867492 714.41657082 1153.40467032 712 1155 C711.11441406 1155.58523438 710.22882813 1156.17046875 709.31640625 1156.7734375 C680.2960853 1175.26492939 648.50833227 1187.81559367 614.91015625 1194.9921875 C614.10223633 1195.17168945 613.29431641 1195.35119141 612.46191406 1195.53613281 C610 1196 610 1196 607.35839844 1196.20605469 C603.42964084 1196.61166999 600.9117561 1196.92611073 598.2824707 1200.02294922 C596.70923758 1202.78904453 595.40100313 1205.58498283 594.125 1208.5 C593.11628092 1210.60681418 592.09921617 1212.70965105 591.07421875 1214.80859375 C590.56681152 1215.85644043 590.0594043 1216.90428711 589.53662109 1217.98388672 C581.26784818 1234.21401391 569.12346805 1248.86551101 556.703125 1262.0859375 C554.6415826 1264.3083517 552.6585313 1266.55527859 550.6875 1268.85546875 C546.94651335 1273.14857063 542.91415071 1277.05842909 538.75 1280.9375 C537.62368164 1281.98997925 537.62368164 1281.98997925 536.47460938 1283.0637207 C530.83644205 1288.2964781 525.07667039 1293.28009634 519 1298 C517.79812259 1298.95566064 516.59630402 1299.91139527 515.39453125 1300.8671875 C474.36540675 1333.16938654 427.03405423 1358.333205 378 1376 C377.02708008 1376.35400879 376.05416016 1376.70801758 375.05175781 1377.07275391 C352.72974734 1385.11607557 329.69744011 1390.92522842 306.3125 1394.875 C305.18183105 1395.06602295 304.05116211 1395.2570459 302.88623047 1395.45385742 C283.7347578 1398.48798569 264.74342726 1399.37672242 245.375 1399.3125 C244.23113831 1399.31067719 243.08727661 1399.30885437 241.90875244 1399.30697632 C225.09005406 1399.26188085 208.61468109 1398.83881449 192 1396 C190.9495752 1395.82839355 189.89915039 1395.65678711 188.81689453 1395.47998047 C162.2070474 1391.04962502 133.72468707 1384.77587488 109.63525391 1372.25048828 C103.90725434 1369.05532178 103.90725434 1369.05532178 97.58447266 1368.12402344 C95.24175498 1368.88413546 93.18553478 1369.86579506 91 1371 C89.19376275 1371.7452119 87.3821629 1372.47751135 85.56640625 1373.19921875 C84.11947388 1373.80008301 84.11947388 1373.80008301 82.64331055 1374.41308594 C59.7612179 1383.87853674 36.38354088 1390.67252344 12 1395 C10.8130957 1395.21172852 9.62619141 1395.42345703 8.40332031 1395.64160156 C-26.98748172 1401.62381321 -65.60635239 1401.88061259 -101 1396 C-102.63074463 1395.75056641 -102.63074463 1395.75056641 -104.29443359 1395.49609375 C-190.65731317 1382.24159468 -278.98294505 1340.43250705 -371 1249 C-371.93681326 1247.8028477 -372.87436758 1246.60627509 -373.8125 1245.41015625 C-402 1209.08343614 -402 1209.08343614 -402 1197 C-402.60295898 1196.95029053 -403.20591797 1196.90058105 -403.82714844 1196.84936523 C-431.80816206 1194.32697344 -459.94621361 1184.44978008 -485 1172 C-485.78874512 1171.61376465 -486.57749023 1171.2275293 -487.39013672 1170.82958984 C-504.47826858 1162.40110082 -520.21807887 1152.004515 -535 1140 C-535.51884766 1139.58411621 -536.03769531 1139.16823242 -536.57226562 1138.73974609 C-544.78126836 1132.11691513 -552.33272552 1124.86809995 -559.8125 1117.4375 C-561.11960937 1116.14428833 -561.11960937 1116.14428833 -562.453125 1114.82495117 C-568.38960489 1108.85966986 -573.77915676 1102.5969912 -579 1096 C-579.47751709 1095.40743408 -579.95503418 1094.81486816 -580.44702148 1094.2043457 C-629.3260936 1033.40695142 -656.6379311 952.57335094 -667.61450195 876.09350586 C-667.90882609 873.9508123 -667.90882609 873.9508123 -669 872 C-669.54785156 872.4125 -670.09570312 872.825 -670.66015625 873.25 C-699.6786738 894.38869246 -737.41355042 904.62467828 -773 906 C-774.50820313 906.061875 -774.50820313 906.061875 -776.046875 906.125 C-807.33339651 906.76025932 -838.63097856 899.03854918 -861.87524414 877.21655273 C-876.33921596 863.04581907 -886.20616329 842.37514227 -887 822 C-887.07734375 820.37578125 -887.07734375 820.37578125 -887.15625 818.71875 C-887.82832874 792.05962654 -878.08980647 769.19209617 -861 749 C-860.46963135 748.53440674 -859.9392627 748.06881348 -859.39282227 747.58911133 C-857.62979706 745.57762472 -857.51071231 744.31969602 -857.26171875 741.67578125 C-857.16721436 740.81968262 -857.07270996 739.96358398 -856.9753418 739.08154297 C-856.880354 738.16775879 -856.78536621 737.25397461 -856.6875 736.3125 C-853.71603852 712.29781964 -842.02914898 692.10329301 -823 677 C-816.97823073 672.78600092 -810.59973686 669.22588035 -804 666 C-809.43248855 664.10409795 -814.89947583 662.43641707 -820.4453125 660.90625 C-883.79957521 643.39716597 -956.14564072 617.39759611 -990.796875 557.20703125 C-1007.87466409 526.56678992 -1011.19141907 493.45357628 -1002.15209961 459.69482422 C-992.09889844 424.42103672 -970.33003537 396.38927666 -938.69140625 378.0859375 C-931.96694967 374.49005613 -925.21553379 371.91206773 -917.9375 369.6875 C-917.14714355 369.44491455 -916.35678711 369.2023291 -915.54248047 368.95239258 C-903.939218 365.59941714 -892.53713653 364.6912351 -880.5 364.8125 C-879.28441406 364.81314453 -878.06882812 364.81378906 -876.81640625 364.81445312 C-870.77428704 364.84347077 -865.0007836 365.12879041 -859.01171875 365.9375 C-854.77329068 366.32778843 -854.77329068 366.32778843 -850.92626953 364.83666992 C-849.13529002 363.06615431 -847.7424107 361.25937164 -846.3125 359.1875 C-845.22405828 357.78695679 -844.13289839 356.38852189 -843.0390625 354.9921875 C-842.52118164 354.30479492 -842.00330078 353.61740234 -841.46972656 352.90917969 C-822.29255706 327.99797279 -789.52741243 312.97814357 -759.16360474 308.27557373 C-752.8253116 307.46827882 -746.4401661 307.5542357 -740.0625 307.625 C-739.31986908 307.62932037 -738.57723816 307.63364075 -737.81210327 307.63809204 C-706.50544808 307.85144609 -677.65450079 317.75833749 -655 340 C-642.49132247 352.74085716 -632.19574145 369.26476358 -626 386 C-622.92093895 382.33804321 -620.44296576 378.50765285 -618.0625 374.375 C-609.73427731 360.23634815 -600.24259611 346.81186685 -590 334 C-589.27554687 333.09378906 -588.55109375 332.18757813 -587.8046875 331.25390625 C-575.03507986 315.48641581 -561.56599303 300.49907008 -547.25 286.125 C-546.45779053 285.32811768 -545.66558105 284.53123535 -544.84936523 283.71020508 C-540.06064506 278.93450998 -535.13964903 274.39395029 -530 270 C-528.53626953 268.71416016 -528.53626953 268.71416016 -527.04296875 267.40234375 C-512.05442413 254.46421563 -495.94974486 243.21019456 -479 233 C-478.33468262 232.59442871 -477.66936523 232.18885742 -476.98388672 231.77099609 C-461.92072373 222.65210944 -445.67701257 215.6063999 -428.9375 210.1875 C-428.04450195 209.89633301 -427.15150391 209.60516602 -426.23144531 209.30517578 C-421.50095998 207.83935561 -416.9242239 206.77844771 -412.01171875 206.12890625 C-402.36818011 205.16254815 -402.36818011 205.16254815 -394.44677734 200.26757812 C-391.77093061 195.72583586 -390.40137046 190.75297574 -388.91650391 185.72607422 C-387.29884219 180.91445709 -384.89974679 176.52273289 -382.5 172.0625 C-381.79012939 170.72735352 -381.79012939 170.72735352 -381.06591797 169.36523438 C-366.18603297 141.72451711 -343.74124555 116.20839317 -319 97 C-317.87374152 96.07602903 -316.75021428 95.14872248 -315.62890625 94.21875 C-293.53806089 75.99744328 -268.52865452 61.80079064 -243 49 C-242.06816895 48.53207031 -241.13633789 48.06414062 -240.17626953 47.58203125 C-191.88390065 23.50749721 -139.54981666 6.18910108 -86 -1 C-85.13648926 -1.11859375 -84.27297852 -1.2371875 -83.38330078 -1.359375 C-56.1169952 -4.93179796 -27.09226756 -4.50419571 0 0 Z M-650 617 C-650.30591064 617.6077124 -650.61182129 618.2154248 -650.92700195 618.84155273 C-675.31314452 667.04629592 -675.31314452 667.04629592 -697.7265625 675.38671875 C-700.80334258 676.34192825 -703.87411823 677.22236656 -707 678 C-704.06387374 681.50902895 -701.19049857 684.85324044 -697.8125 687.9375 C-680.94942879 704.72644782 -671.34463911 728.87639672 -664 751 C-662.40718633 748.05729376 -661.44372126 745.25980124 -660.625 742.01953125 C-655.48584804 722.3312407 -648.72486007 703.69199352 -639.3125 685.625 C-638.63175415 684.31511108 -638.63175415 684.31511108 -637.93725586 682.97875977 C-636.00594108 679.36495852 -634.10650089 675.96277708 -631.46875 672.81640625 C-629.27619033 670.14323115 -627.84188838 668.35782069 -627 665 C-628.49961873 659.9563385 -631.00112658 655.77658799 -633.69775391 651.28759766 C-635.9966452 647.24923781 -637.82019852 643.0006151 -639.6875 638.75 C-640.06511475 637.9041333 -640.44272949 637.0582666 -640.83178711 636.18676758 C-643.66176952 629.83497412 -646.39250441 623.44667251 -649 617 C-649.33 617 -649.66 617 -650 617 Z " fill="#0C1D0B" transform="translate(1063,66)"/>
<path d="M0 0 C4.65529563 0.00249182 9.31057212 -0.00657716 13.96586049 -0.01403749 C23.06149351 -0.02671985 32.15709692 -0.02858623 41.25273729 -0.02623723 C48.65573091 -0.02444631 56.05871563 -0.02622019 63.46170819 -0.03046167 C64.51971695 -0.03105686 65.57772571 -0.03165205 66.66779534 -0.03226527 C68.81793492 -0.03347717 70.96807449 -0.0346913 73.11821406 -0.03590765 C93.23685721 -0.04675869 113.35548356 -0.0446325 133.47412764 -0.0385228 C151.82280551 -0.03335813 170.17143021 -0.04460159 188.52009756 -0.06362102 C207.42032352 -0.08305993 226.3205244 -0.0912447 245.22076041 -0.08749777 C255.80772281 -0.08559458 266.39464003 -0.08798632 276.9815942 -0.10221231 C285.99659581 -0.11420471 295.01152442 -0.11544403 304.02652717 -0.10342214 C308.61323703 -0.0975875 313.19981389 -0.09628095 317.7865144 -0.10842454 C342.96923507 -0.17053636 367.99075127 0.28862487 392.5879308 6.40110838 C394.4444225 6.85115233 394.4444225 6.85115233 396.33841908 7.31028807 C439.92035182 18.22942382 479.06219412 38.89267659 512.2051183 69.17845213 C514.212474 70.9931828 516.26110689 72.73002525 518.3379308 74.46360838 C529.95533577 84.65799789 539.42490557 96.8594835 548.5254308 109.27610838 C549.21507924 110.21454588 549.90472767 111.15298338 550.61527455 112.11985838 C552.30202635 114.47595614 553.92905549 116.85795366 555.5254308 119.27610838 C556.11066517 120.16169432 556.69589955 121.04728026 557.2988683 121.95970213 C581.97055637 160.67914729 598.64079774 207.19507674 598.69339955 253.48704588 C598.69672795 254.53526518 598.70005635 255.58348448 598.70348561 256.663468 C598.70852121 258.87369918 598.71089498 261.08393788 598.71073353 263.29417479 C598.71290212 266.60729737 598.73104495 269.92007655 598.75004017 273.23313963 C598.79860687 291.07438945 597.53627234 308.40705805 594.2754308 325.96360838 C593.94684071 327.74348143 593.94684071 327.74348143 593.61161244 329.55931151 C581.67752217 392.81462369 555.35178518 451.34200393 514.5254308 501.27610838 C514.09343373 501.81251952 513.66143666 502.34893065 513.21634877 502.90159667 C505.3881046 512.56019611 496.66166031 521.34906477 487.9004308 530.15110838 C487.03526845 531.02417128 487.03526845 531.02417128 486.15262806 531.91487181 C478.9323816 539.1860066 471.5730964 545.9192955 463.5254308 552.27610838 C462.38593409 553.22827805 461.24989008 554.18461377 460.1191808 555.14720213 C427.79526861 582.18590028 389.14692473 602.46028848 349.5254308 616.27610838 C348.534464 616.63043944 347.5434972 616.98477049 346.52250111 617.34983885 C332.85927726 622.22893059 319.25627345 625.99908181 305.01859486 628.78538573 C302.82589874 629.2169681 300.64008479 629.6705529 298.4551183 630.13938963 C291.49000876 631.60612436 284.49541949 632.8120443 277.4629308 633.90110838 C276.29467762 634.08600829 276.29467762 634.08600829 275.10282338 634.27464354 C261.62072461 636.28922604 248.13666853 636.42929191 234.54007924 636.4372412 C232.66889297 636.44188125 230.79770762 636.44690746 228.92652333 636.45228636 C223.88031334 636.46530141 218.83411658 636.47183426 213.78789246 636.47629702 C210.62067378 636.47924654 207.45345856 636.48335478 204.28624165 636.48780119 C194.33473738 636.50144981 184.38324122 636.51112832 174.43172824 636.51500309 C163.02293425 636.51947215 151.61426075 636.53697762 140.20550334 636.56600368 C131.3352466 636.5877718 122.46502338 636.59771542 113.59474027 636.5990442 C108.32128198 636.60008183 103.04793732 636.6057627 97.77450764 636.62386382 C76.1813369 636.69377096 54.90358197 636.75541106 33.5254308 633.27610838 C32.66937623 633.13688869 31.81332165 632.997669 30.93132603 632.85423052 C25.89650722 632.01803673 20.89645374 631.06836443 15.9004308 630.02610838 C15.16639027 629.87582182 14.43234974 629.72553526 13.67606556 629.57069457 C-17.74850042 623.1136093 -47.65845943 612.35246704 -76.4745692 598.27610838 C-77.29828014 597.87456542 -78.12199108 597.47302245 -78.97066295 597.05931151 C-104.46329241 584.48043605 -128.30652974 568.47923638 -149.70015514 549.77928221 C-151.07449443 548.61502698 -152.47342048 547.47976255 -153.88179576 546.35691893 C-160.58816878 541.00248267 -166.72682753 535.30658028 -172.74654186 529.20994627 C-174.23213388 527.70594999 -175.72572126 526.21025933 -177.22066295 524.71556151 C-182.51157566 519.40571634 -187.64975626 514.01473479 -192.4745692 508.27610838 C-192.98374889 507.67371336 -193.49292858 507.07131835 -194.01753795 506.45066893 C-224.69360912 469.83650278 -247.88722099 428.40493241 -263.4745692 383.27610838 C-263.98527965 381.79980956 -263.98527965 381.79980956 -264.50630748 380.29368651 C-269.11191119 366.81229103 -272.62183423 353.22811881 -275.4745692 339.27610838 C-275.65616588 338.41646483 -275.83776256 337.55682127 -276.02486217 336.67112792 C-291.31858112 263.57960777 -282.34820134 185.61676239 -241.15132701 122.24046385 C-231.47449309 107.53014361 -220.70516071 93.93773396 -208.4745692 81.27610838 C-207.87563854 80.65526366 -207.27670787 80.03441893 -206.6596278 79.39476073 C-198.99650207 71.4943253 -191.25701778 63.9440413 -182.4745692 57.27610838 C-181.92365612 56.85410155 -181.37274303 56.43209471 -180.80513561 55.99729979 C-171.39201201 48.81543512 -161.64974892 42.32472733 -151.4745692 36.27610838 C-150.79088268 35.86505858 -150.10719615 35.45400877 -149.40279186 35.03050292 C-132.21004129 24.77412411 -113.61872536 17.08009462 -94.4745692 11.27610838 C-92.93736217 10.7772412 -92.93736217 10.7772412 -91.36910045 10.26829588 C-83.63417746 7.87527464 -75.78630689 6.22399921 -67.8495692 4.65110838 C-66.83209606 4.44485838 -65.81462291 4.23860838 -64.76631725 4.02610838 C-43.26546021 -0.08869641 -21.79013702 -0.02189664 0 0 Z " fill="#FEFEFE" transform="translate(1003.4745692014694,525.7238916158676)"/>
<path d="M0 0 C0.98500488 0.16097168 1.97000977 0.32194336 2.98486328 0.48779297 C38.07930721 6.45826464 69.4602332 20.55022096 99 40 C100.18916016 39.14341797 100.18916016 39.14341797 101.40234375 38.26953125 C134.08447568 15.31840665 172.42153407 2.20462176 212 -2 C212.78624756 -2.0928125 213.57249512 -2.185625 214.38256836 -2.28125 C223.38108806 -3.24430228 232.39751237 -3.24359597 241.4375 -3.25 C242.72764511 -3.25101212 242.72764511 -3.25101212 244.04385376 -3.25204468 C259.53637723 -3.23286078 274.65851001 -2.2996391 290 0 C291.1230957 0.16628906 292.24619141 0.33257812 293.40332031 0.50390625 C371.24462592 12.40826904 454.42962534 45.3167071 515 96 C515.7731958 96.64001953 515.7731958 96.64001953 516.56201172 97.29296875 C522.46065752 102.17743741 528.27654805 107.06803033 533.59375 112.59375 C535.11076273 114.16971004 535.11076273 114.16971004 537.5 115.9375 C540.3776971 118.31160011 542.66134308 120.93298148 545.07421875 123.76953125 C546.33705565 125.23216791 547.63091857 126.66869813 548.95703125 128.07421875 C568.0825753 148.40619786 586.17944648 175.62093482 593 203 C593.59643311 203.0424585 594.19286621 203.08491699 594.80737305 203.12866211 C601.33926153 203.67673501 607.48257793 204.88342332 613.8125 206.5625 C614.80878418 206.82643555 615.80506836 207.09037109 616.83154297 207.36230469 C655.84254564 218.03926001 690.28509249 239.11490743 721 265 C722.00587158 265.83523193 723.01174316 266.67046387 724.0480957 267.53100586 C732.7228962 274.79363501 740.83389875 282.52244465 748.80639648 290.5456543 C750.82117835 292.57122482 752.84653275 294.58578384 754.87304688 296.59960938 C761.33913531 303.05947671 767.5483607 309.53809645 773.19897461 316.73364258 C774.96494915 318.95589304 776.82097247 321.04386373 778.75 323.125 C833.20308726 383.9399331 864.5596518 465.43248825 860.86376953 547.00683594 C860.4837802 553.03714817 859.8255793 559.01540174 859 565 C858.87641113 565.8981543 858.75282227 566.79630859 858.62548828 567.72167969 C854.14538316 598.88148959 844.50620553 633.00605529 827.60546875 659.890625 C825.7972478 662.79746327 825.7972478 662.79746327 826.02734375 665.5703125 C827.23754268 668.59337971 828.78653196 671.14327617 830.5625 673.875 C849.23046999 703.47814736 859.46168705 736.61565705 865 771 C865.2477417 772.47823242 865.2477417 772.47823242 865.50048828 773.98632812 C879.011488 857.98646289 855.5486933 947.14023859 785.58544922 1083.96875 C782.82411618 1087.72886307 779.94539108 1091.38151306 777 1095 C776.58218262 1095.51401367 776.16436523 1096.02802734 775.73388672 1096.55761719 C759.76650992 1116.09262042 742.32369655 1133.0575061 722 1148 C720.59041016 1149.03640625 720.59041016 1149.03640625 719.15234375 1150.09375 C716.79727823 1151.77867492 714.41657082 1153.40467032 712 1155 C711.11441406 1155.58523438 710.22882813 1156.17046875 709.31640625 1156.7734375 C680.2960853 1175.26492939 648.50833227 1187.81559367 614.91015625 1194.9921875 C614.10223633 1195.17168945 613.29431641 1195.35119141 612.46191406 1195.53613281 C610 1196 610 1196 607.35839844 1196.20605469 C603.42964084 1196.61166999 600.9117561 1196.92611073 598.2824707 1200.02294922 C596.70923758 1202.78904453 595.40100313 1205.58498283 594.125 1208.5 C593.11628092 1210.60681418 592.09921617 1212.70965105 591.07421875 1214.80859375 C590.56681152 1215.85644043 590.0594043 1216.90428711 589.53662109 1217.98388672 C581.26784818 1234.21401391 569.12346805 1248.86551101 556.703125 1262.0859375 C554.6415826 1264.3083517 552.6585313 1266.55527859 550.6875 1268.85546875 C546.94651335 1273.14857063 542.91415071 1277.05842909 538.75 1280.9375 C537.62368164 1281.98997925 537.62368164 1281.98997925 536.47460938 1283.0637207 C530.83644205 1288.2964781 525.07667039 1293.28009634 519 1298 C517.79812259 1298.95566064 516.59630402 1299.91139527 515.39453125 1300.8671875 C474.36540675 1333.16938654 427.03405423 1358.333205 378 1376 C377.02708008 1376.35400879 376.05416016 1376.70801758 375.05175781 1377.07275391 C352.72974734 1385.11607557 329.69744011 1390.92522842 306.3125 1394.875 C305.18183105 1395.06602295 304.05116211 1395.2570459 302.88623047 1395.45385742 C283.7347578 1398.48798569 264.74342726 1399.37672242 245.375 1399.3125 C244.23113831 1399.31067719 243.08727661 1399.30885437 241.90875244 1399.30697632 C225.09005406 1399.26188085 208.61468109 1398.83881449 192 1396 C190.9495752 1395.82839355 189.89915039 1395.65678711 188.81689453 1395.47998047 C162.2070474 1391.04962502 133.72468707 1384.77587488 109.63525391 1372.25048828 C103.90725434 1369.05532178 103.90725434 1369.05532178 97.58447266 1368.12402344 C95.24175498 1368.88413546 93.18553478 1369.86579506 91 1371 C89.19376275 1371.7452119 87.3821629 1372.47751135 85.56640625 1373.19921875 C84.11947388 1373.80008301 84.11947388 1373.80008301 82.64331055 1374.41308594 C59.7612179 1383.87853674 36.38354088 1390.67252344 12 1395 C10.8130957 1395.21172852 9.62619141 1395.42345703 8.40332031 1395.64160156 C-26.98748172 1401.62381321 -65.60635239 1401.88061259 -101 1396 C-102.63074463 1395.75056641 -102.63074463 1395.75056641 -104.29443359 1395.49609375 C-190.65731317 1382.24159468 -278.98294505 1340.43250705 -371 1249 C-371.93681326 1247.8028477 -372.87436758 1246.60627509 -373.8125 1245.41015625 C-402 1209.08343614 -402 1209.08343614 -402 1197 C-402.60295898 1196.95029053 -403.20591797 1196.90058105 -403.82714844 1196.84936523 C-431.80816206 1194.32697344 -459.94621361 1184.44978008 -485 1172 C-485.78874512 1171.61376465 -486.57749023 1171.2275293 -487.39013672 1170.82958984 C-504.47826858 1162.40110082 -520.21807887 1152.004515 -535 1140 C-535.51884766 1139.58411621 -536.03769531 1139.16823242 -536.57226562 1138.73974609 C-544.78126836 1132.11691513 -552.33272552 1124.86809995 -559.8125 1117.4375 C-561.11960937 1116.14428833 -561.11960937 1116.14428833 -562.453125 1114.82495117 C-568.38960489 1108.85966986 -573.77915676 1102.5969912 -579 1096 C-579.47751709 1095.40743408 -579.95503418 1094.81486816 -580.44702148 1094.2043457 C-629.3260936 1033.40695142 -656.6379311 952.57335094 -667.61450195 876.09350586 C-667.90882609 873.9508123 -667.90882609 873.9508123 -669 872 C-669.54785156 872.4125 -670.09570312 872.825 -670.66015625 873.25 C-699.6786738 894.38869246 -737.41355042 904.62467828 -773 906 C-774.50820313 906.061875 -774.50820313 906.061875 -776.046875 906.125 C-807.33339651 906.76025932 -838.63097856 899.03854918 -861.87524414 877.21655273 C-876.33921596 863.04581907 -886.20616329 842.37514227 -887 822 C-887.07734375 820.37578125 -887.07734375 820.37578125 -887.15625 818.71875 C-887.82832874 792.05962654 -878.08980647 769.19209617 -861 749 C-860.46963135 748.53440674 -859.9392627 748.06881348 -859.39282227 747.58911133 C-857.62979706 745.57762472 -857.51071231 744.31969602 -857.26171875 741.67578125 C-857.16721436 740.81968262 -857.07270996 739.96358398 -856.9753418 739.08154297 C-856.880354 738.16775879 -856.78536621 737.25397461 -856.6875 736.3125 C-853.71603852 712.29781964 -842.02914898 692.10329301 -823 677 C-816.97823073 672.78600092 -810.59973686 669.22588035 -804 666 C-809.43248855 664.10409795 -814.89947583 662.43641707 -820.4453125 660.90625 C-883.79957521 643.39716597 -956.14564072 617.39759611 -990.796875 557.20703125 C-1007.87466409 526.56678992 -1011.19141907 493.45357628 -1002.15209961 459.69482422 C-992.09889844 424.42103672 -970.33003537 396.38927666 -938.69140625 378.0859375 C-931.96694967 374.49005613 -925.21553379 371.91206773 -917.9375 369.6875 C-917.14714355 369.44491455 -916.35678711 369.2023291 -915.54248047 368.95239258 C-903.939218 365.59941714 -892.53713653 364.6912351 -880.5 364.8125 C-879.28441406 364.81314453 -878.06882812 364.81378906 -876.81640625 364.81445312 C-870.77428704 364.84347077 -865.0007836 365.12879041 -859.01171875 365.9375 C-854.77329068 366.32778843 -854.77329068 366.32778843 -850.92626953 364.83666992 C-849.13529002 363.06615431 -847.7424107 361.25937164 -846.3125 359.1875 C-845.22405828 357.78695679 -844.13289839 356.38852189 -843.0390625 354.9921875 C-842.52118164 354.30479492 -842.00330078 353.61740234 -841.46972656 352.90917969 C-822.29255706 327.99797279 -789.52741243 312.97814357 -759.16360474 308.27557373 C-752.8253116 307.46827882 -746.4401661 307.5542357 -740.0625 307.625 C-739.31986908 307.62932037 -738.57723816 307.63364075 -737.81210327 307.63809204 C-706.50544808 307.85144609 -677.65450079 317.75833749 -655 340 C-642.49132247 352.74085716 -632.19574145 369.26476358 -626 386 C-622.92093895 382.33804321 -620.44296576 378.50765285 -618.0625 374.375 C-609.73427731 360.23634815 -600.24259611 346.81186685 -590 334 C-589.27554687 333.09378906 -588.55109375 332.18757813 -587.8046875 331.25390625 C-575.03507986 315.48641581 -561.56599303 300.49907008 -547.25 286.125 C-546.45779053 285.32811768 -545.66558105 284.53123535 -544.84936523 283.71020508 C-540.06064506 278.93450998 -535.13964903 274.39395029 -530 270 C-528.53626953 268.71416016 -528.53626953 268.71416016 -527.04296875 267.40234375 C-512.05442413 254.46421563 -495.94974486 243.21019456 -479 233 C-478.33468262 232.59442871 -477.66936523 232.18885742 -476.98388672 231.77099609 C-461.92072373 222.65210944 -445.67701257 215.6063999 -428.9375 210.1875 C-428.04450195 209.89633301 -427.15150391 209.60516602 -426.23144531 209.30517578 C-421.50095998 207.83935561 -416.9242239 206.77844771 -412.01171875 206.12890625 C-402.36818011 205.16254815 -402.36818011 205.16254815 -394.44677734 200.26757812 C-391.77093061 195.72583586 -390.40137046 190.75297574 -388.91650391 185.72607422 C-387.29884219 180.91445709 -384.89974679 176.52273289 -382.5 172.0625 C-381.79012939 170.72735352 -381.79012939 170.72735352 -381.06591797 169.36523438 C-366.18603297 141.72451711 -343.74124555 116.20839317 -319 97 C-317.87374152 96.07602903 -316.75021428 95.14872248 -315.62890625 94.21875 C-293.53806089 75.99744328 -268.52865452 61.80079064 -243 49 C-242.06816895 48.53207031 -241.13633789 48.06414062 -240.17626953 47.58203125 C-191.88390065 23.50749721 -139.54981666 6.18910108 -86 -1 C-85.13648926 -1.11859375 -84.27297852 -1.2371875 -83.38330078 -1.359375 C-56.1169952 -4.93179796 -27.09226756 -4.50419571 0 0 Z M-123 61 C-123.84336914 61.22494141 -124.68673828 61.44988281 -125.55566406 61.68164062 C-153.9976536 69.38404437 -181.19033205 79.87909068 -208 92 C-208.87881836 92.39316406 -209.75763672 92.78632813 -210.66308594 93.19140625 C-235.73720624 104.43689504 -259.48634595 118.90836277 -281 136 C-281.53286621 136.41717285 -282.06573242 136.8343457 -282.61474609 137.26416016 C-299.06783125 150.23111535 -314.4121249 165.50886777 -326 183 C-326.4021875 183.60585937 -326.804375 184.21171875 -327.21875 184.8359375 C-340.16695615 204.68417456 -352.43311198 229.78904018 -352 254 C-352.55123535 253.98428955 -353.1024707 253.9685791 -353.67041016 253.95239258 C-375.42690412 253.42092597 -395.40855102 255.83243487 -416 263 C-417.86785156 263.64388672 -417.86785156 263.64388672 -419.7734375 264.30078125 C-437.22408986 270.83032998 -453.91657741 280.09500056 -469 291 C-470.02996094 291.73734375 -471.05992187 292.4746875 -472.12109375 293.234375 C-479.71097048 298.80094259 -486.92682609 304.79457092 -494 311 C-494.72453369 311.63478271 -495.44906738 312.26956543 -496.19555664 312.92358398 C-502.55772092 318.56929692 -508.62391929 324.46906281 -514.6237793 330.4934082 C-516.1927236 332.06774155 -517.76698558 333.63661589 -519.34179688 335.20507812 C-524.77078007 340.62978955 -530.05826983 346.12223612 -535 352 C-535.53939209 352.63268799 -536.07878418 353.26537598 -536.63452148 353.91723633 C-578.92260354 403.75564734 -609.19486062 461.92874341 -609.25 528.3125 C-609.25100708 529.15493256 -609.25201416 529.99736511 -609.25305176 530.86532593 C-609.24235079 544.12272028 -608.59842064 556.96548515 -606 570 C-605.86609863 570.71704102 -605.73219727 571.43408203 -605.59423828 572.17285156 C-598.9437374 607.11014955 -581.9661691 639.63619323 -561 668 C-562.45506508 671.40273032 -564.30322768 673.42853861 -567 675.9375 C-603.26390714 711.62211149 -616.89474647 766.74524461 -617.42700195 816.06329346 C-617.56967894 844.93298643 -614.03660473 873.79702333 -608 902 C-607.84063965 902.77778809 -607.6812793 903.55557617 -607.51708984 904.35693359 C-600.97779415 936.17381549 -589.1448528 967.39700379 -576 997 C-575.61875977 997.86705566 -575.23751953 998.73411133 -574.84472656 999.62744141 C-564.2301301 1023.5985 -550.13411505 1046.14216241 -533 1066 C-532.35417969 1066.75667969 -531.70835937 1067.51335938 -531.04296875 1068.29296875 C-491.44954181 1113.48852493 -438.74773719 1141.09472634 -378.609375 1145.8828125 C-373.40752865 1146.11642835 -368.2053494 1146.07448036 -363 1146 C-362.79375 1147.134375 -362.5875 1148.26875 -362.375 1149.4375 C-357.94169728 1168.93188594 -348.82837563 1187.93593938 -337 1204 C-335.84564453 1205.57974609 -335.84564453 1205.57974609 -334.66796875 1207.19140625 C-329.65943613 1213.92457981 -324.25723033 1220.18179055 -318.515625 1226.296875 C-316.45958509 1228.50616012 -314.49899728 1230.74998383 -312.5625 1233.0625 C-283.36726608 1266.51680334 -240.5107292 1290.09413415 -201 1309 C-200.21818359 1309.37833984 -199.43636719 1309.75667969 -198.63085938 1310.14648438 C-169.13461258 1324.33484166 -137.82857531 1334.37940021 -105.69287109 1340.48681641 C-103.9794728 1340.81334072 -102.2684437 1341.1527554 -100.56103516 1341.50927734 C-84.22371109 1344.77928444 -67.69379611 1345.32934223 -51.08203125 1345.26074219 C-48.00240405 1345.25000838 -44.92335989 1345.26071992 -41.84375 1345.2734375 C4.20693991 1345.30974058 55.89916908 1334.0537055 94.73046875 1308.046875 C97.75101554 1306.65357631 98.86538294 1306.89420215 102 1308 C104.60641581 1309.40903013 107.14278561 1310.86293163 109.6875 1312.375 C136.57922304 1327.73930183 166.5254385 1337.07134501 197 1342 C197.98822754 1342.16371094 198.97645508 1342.32742188 199.99462891 1342.49609375 C265.95452236 1352.91024754 333.45897126 1339.2208334 393.40185547 1311.21240234 C395.7710403 1310.10684212 398.14981721 1309.02716441 400.53515625 1307.95703125 C431.82658085 1293.78507218 461.81962611 1275.26092838 488 1253 C489.08281757 1252.10224214 490.16618204 1251.20514363 491.25 1250.30859375 C504.01105935 1239.66627708 515.81816099 1228.15865228 526 1215 C526.78503906 1214.04351563 527.57007813 1213.08703125 528.37890625 1212.1015625 C541.12766821 1196.26037784 550.53618299 1177.94825145 557.4375 1158.875 C557.69700439 1158.1639209 557.95650879 1157.4528418 558.22387695 1156.72021484 C559.50397014 1153.03978181 560.31145921 1149.90463495 560 1146 C561.57974609 1146.03480469 561.57974609 1146.03480469 563.19140625 1146.0703125 C572.9862343 1146.2202275 582.30755458 1145.55981662 592 1144 C593.41120427 1143.8015701 594.82267349 1143.60501713 596.234375 1143.41015625 C607.86123377 1141.73372545 618.8790694 1138.75564152 630 1135 C630.84433594 1134.71527832 631.68867187 1134.43055664 632.55859375 1134.13720703 C651.40503771 1127.65067409 669.9303811 1118.88871514 686 1107 C686.52207031 1106.61634277 687.04414062 1106.23268555 687.58203125 1105.83740234 C694.26515492 1100.90135989 700.64088689 1095.70168133 706.75 1090.0625 C708.72789558 1088.24942906 710.75196817 1086.52960986 712.8125 1084.8125 C749.04734455 1053.10701102 770.79340131 1007.06063112 787.31768799 962.82299805 C787.93982868 961.16076546 788.56891056 959.50113503 789.19873047 957.84179688 C816.72075108 884.93149148 827.90740649 794.26313419 795.125 721.375 C785.95743024 701.69903742 773.67673121 684.94946017 758 670 C759.3156387 667.24763053 760.7738496 664.74534443 762.50390625 662.234375 C769.20241254 652.41409534 775.5031949 642.5446965 781 632 C781.39928711 631.23945312 781.79857422 630.47890625 782.20996094 629.6953125 C792.39039495 610.04969745 799.91876492 588.7717014 804 567 C804.14663086 566.27409668 804.29326172 565.54819336 804.44433594 564.80029297 C813.00810608 521.34606577 804.45266062 476.10854571 787 436 C786.69513672 435.28859863 786.39027344 434.57719727 786.07617188 433.84423828 C771.06109718 399.13606615 747.38416018 368.71069532 722 341 C721.52385254 340.47873535 721.04770508 339.9574707 720.55712891 339.42041016 C713.05194807 331.20975662 705.58094454 323.11898656 697.1328125 315.859375 C695.69010448 314.60162954 694.26846124 313.3193742 692.8671875 312.015625 C669.8040791 290.5942972 642.5971829 273.65624396 613 263 C612.32050293 262.75024414 611.64100586 262.50048828 610.94091797 262.24316406 C590.7645055 254.93852264 570.31848553 253.29882274 549 254 C548.99742188 253.23300781 548.99484375 252.46601563 548.9921875 251.67578125 C547.8428724 218.69043793 529.01277311 186.57629719 507 163 C505.78624946 161.60887464 504.57758747 160.21328675 503.375 158.8125 C497.68035635 152.31176524 491.59800746 146.71066636 484.8515625 141.30078125 C483.07427864 139.86678099 481.31526887 138.4094471 479.5859375 136.91796875 C411.99913094 79.09370092 309.29099922 47.10457179 221.25 51.25 C195.6767026 53.45860296 170.37332316 60.21784879 148 73 C147.36175293 73.35562012 146.72350586 73.71124023 146.06591797 74.07763672 C137.34205308 78.96015562 129.52055369 84.36897417 122 91 C121.17113281 91.71929687 120.34226562 92.43859375 119.48828125 93.1796875 C108.51373547 102.10016467 108.51373547 102.10016467 100 113 C95.9341305 111.43255031 93.53932302 108.51382663 90.75 105.3125 C86.4309957 100.49377619 82.05894325 96.05610848 77 92 C76.03449219 91.22011719 75.06898438 90.44023437 74.07421875 89.63671875 C18.35406702 45.32564825 -56.53197202 43.19555605 -123 61 Z M-650 617 C-650.30591064 617.6077124 -650.61182129 618.2154248 -650.92700195 618.84155273 C-675.31314452 667.04629592 -675.31314452 667.04629592 -697.7265625 675.38671875 C-700.80334258 676.34192825 -703.87411823 677.22236656 -707 678 C-704.06387374 681.50902895 -701.19049857 684.85324044 -697.8125 687.9375 C-680.94942879 704.72644782 -671.34463911 728.87639672 -664 751 C-662.40718633 748.05729376 -661.44372126 745.25980124 -660.625 742.01953125 C-655.48584804 722.3312407 -648.72486007 703.69199352 -639.3125 685.625 C-638.63175415 684.31511108 -638.63175415 684.31511108 -637.93725586 682.97875977 C-636.00594108 679.36495852 -634.10650089 675.96277708 -631.46875 672.81640625 C-629.27619033 670.14323115 -627.84188838 668.35782069 -627 665 C-628.49961873 659.9563385 -631.00112658 655.77658799 -633.69775391 651.28759766 C-635.9966452 647.24923781 -637.82019852 643.0006151 -639.6875 638.75 C-640.06511475 637.9041333 -640.44272949 637.0582666 -640.83178711 636.18676758 C-643.66176952 629.83497412 -646.39250441 623.44667251 -649 617 C-649.33 617 -649.66 617 -650 617 Z " fill="#FEFEFE" transform="translate(1063,66)"/>
<path d="M0 0 C0.76468597 0.00149048 1.52937195 0.00298096 2.31723022 0.0045166 C13.87577358 0.04485268 25.07124172 0.69284465 36.45019531 2.859375 C39.00010217 3.33587793 41.5551833 3.75009007 44.1171875 4.15625 C84.49572409 10.73340254 124.0602784 25.79543801 160.3359375 44.5 C162.63717694 45.67855971 164.95453738 46.82633015 167.2890625 47.9375 C210.28458623 68.49627916 249.47520409 102.75751136 265.875 148.3125 C273.33520405 172.29357114 271.675374 198.65813961 260.875 221.3125 C261.51824219 220.87679687 262.16148437 220.44109375 262.82421875 219.9921875 C286.73928836 204.23075789 313.45767788 199.55429219 341.52734375 205.28515625 C373.65561728 212.56179553 402.72040907 230.80242375 426.55078125 253.13671875 C428.53154937 254.99098403 430.55066111 256.75295552 432.625 258.5 C442.02853261 266.67698488 450.85988776 275.77910658 458.875 285.3125 C459.72835937 286.27671875 460.58171875 287.2409375 461.4609375 288.234375 C474.8899799 303.46011822 486.3888054 319.95099572 496.875 337.3125 C497.47538086 338.28654785 497.47538086 338.28654785 498.08789062 339.28027344 C512.87209147 363.37071315 521.18428899 389.64948873 525.875 417.3125 C526.16890625 418.91351562 526.16890625 418.91351562 526.46875 420.546875 C531.88014974 470.70638799 514.29750794 520.32380519 483.359375 559.48486328 C466.27270306 580.5228281 445.51082392 597.26918065 421.875 610.3125 C421.12347656 610.73273437 420.37195312 611.15296875 419.59765625 611.5859375 C394.39998102 625.60825255 361.22739977 640.79592884 331.875 640.3125 C331.8656543 639.72275391 331.85630859 639.13300781 331.84667969 638.52539062 C330.48607826 568.68118411 308.65175331 501.53369092 263.875 447.3125 C263.15957031 446.41144531 262.44414063 445.51039063 261.70703125 444.58203125 C255.52701268 436.98719126 248.77668603 429.99934979 241.875 423.0625 C240.96153809 422.13985352 240.04807617 421.21720703 239.10693359 420.26660156 C233.00444474 414.19138031 226.64520579 408.63064394 219.875 403.3125 C219.1850293 402.76851562 218.49505859 402.22453125 217.78417969 401.6640625 C183.30739929 374.81109631 144.19831299 356.11013108 101.875 345.3125 C100.74529785 345.02101074 100.74529785 345.02101074 99.59277344 344.72363281 C70.44448485 337.39499334 40.37773933 337.840885 10.54875731 337.80638909 C5.02085117 337.7968677 -0.50697832 337.77065597 -6.03483582 337.74638367 C-16.45323202 337.7030871 -26.87161306 337.67431583 -37.29007119 337.65106028 C-49.17206214 337.6238084 -61.05397456 337.5799112 -72.93590891 337.53477156 C-97.33222974 337.4424544 -121.72857519 337.37053431 -146.125 337.3125 C-146.13153445 331.28969721 -146.13624999 325.26689655 -146.13937664 319.24409103 C-146.14068195 317.20087269 -146.14245964 315.15765459 -146.14474392 313.1144371 C-146.16093008 298.24983131 -146.04457824 283.41669971 -145.4375 268.5625 C-145.39587738 267.49618347 -145.35425476 266.42986694 -145.31137085 265.33123779 C-143.35786883 216.02199991 -139.95089223 166.75919253 -135.78551865 117.59130096 C-135.56402571 114.95565507 -135.3479248 112.31961657 -135.13320923 109.68341064 C-134.795189 105.54821465 -134.44056828 101.41476591 -134.07288742 97.28210449 C-133.9407249 95.77211545 -133.81359253 94.26167571 -133.69206619 92.75079346 C-131.85504866 70.08836176 -118.22689882 50.99170894 -101.5 35.9375 C-100.04892029 34.7204654 -98.58979617 33.51299062 -97.125 32.3125 C-96.24714844 31.56226563 -95.36929687 30.81203125 -94.46484375 30.0390625 C-67.79223846 8.21915056 -33.89049897 -0.16467192 0 0 Z " fill="#73B32A" transform="translate(1305.125,154.6875)"/>
<path d="M0 0 C0.75291321 0.00087616 1.50582642 0.00175232 2.28155518 0.00265503 C41.61409106 0.15227336 75.58775186 12.17352288 105 38.375 C105.66773438 38.96925781 106.33546875 39.56351563 107.0234375 40.17578125 C116.38174054 49.0288238 123.64342185 60.27392434 130 71.375 C131.01513672 73.05916016 131.01513672 73.05916016 132.05078125 74.77734375 C132.69402344 75.92332031 133.33726562 77.06929688 134 78.25 C134.5775 79.25804687 135.155 80.26609375 135.75 81.3046875 C139.60399575 90.87065832 136.73361572 104.85734202 135.65625 114.765625 C135.37353856 117.4988136 135.09822949 120.23272362 134.82421875 122.96679688 C134.75417381 123.66190243 134.68412888 124.35700798 134.61196136 125.07317734 C133.87073858 132.51411044 133.27704078 139.96520429 132.71875 147.421875 C132.66857035 148.09193007 132.61839069 148.76198513 132.56669044 149.45234489 C132.20253902 154.34261884 131.84976851 159.23367903 131.5 164.125 C131.44705654 164.86243061 131.39411308 165.59986122 131.33956528 166.35963821 C128.20316982 210.08246959 126.04520978 253.77566585 124.98275375 297.59706497 C124.87286688 302.10353954 124.7596951 306.6099317 124.64685059 311.11633301 C124.42813083 319.86914719 124.21287073 328.62204162 124 337.375 C122.65135565 337.37719984 122.65135565 337.37719984 121.27546597 337.37944412 C99.24985945 337.4167331 77.22440412 337.4760353 55.19892025 337.55890274 C44.54691807 337.59846558 33.89498733 337.63097225 23.24291992 337.64599609 C13.94275563 337.65913205 4.64275006 337.68639438 -4.65732473 337.72961307 C-9.56729666 337.75196369 -14.47707483 337.76792693 -19.38710213 337.76688385 C-70.3474317 337.76797289 -117.72052132 345.71871684 -164 368.375 C-164.70560059 368.71821289 -165.41120117 369.06142578 -166.13818359 369.41503906 C-188.92940452 380.63778729 -210.31088052 395.15972462 -228.9296875 412.453125 C-230.82771064 414.21506346 -232.77249778 415.89113829 -234.75 417.5625 C-244.75072976 426.3055315 -253.83806697 435.90390798 -262 446.375 C-262.85496223 447.42985387 -263.71182204 448.48317183 -264.5703125 449.53515625 C-294.75814624 486.79181139 -315.84943139 532.29175511 -325 579.375 C-325.13889648 580.08543457 -325.27779297 580.79586914 -325.42089844 581.52783203 C-328.90804925 600.23126799 -329.1826179 619.41085476 -330 638.375 C-369.24674915 632.7501365 -408.51596077 619.62293931 -441 596.375 C-442.44052734 595.34632813 -442.44052734 595.34632813 -443.91015625 594.296875 C-462.56934822 580.6282179 -462.56934822 580.6282179 -470 572.375 C-470 571.715 -470 571.055 -470 570.375 C-470.70769531 570.18292969 -471.41539062 569.99085938 -472.14453125 569.79296875 C-476.06044389 567.84840474 -478.05908476 565.11378855 -480.6875 561.6875 C-481.20932861 561.01904053 -481.73115723 560.35058105 -482.26879883 559.66186523 C-498.60503149 538.46871342 -510.89377158 515.25715057 -518.875 489.6875 C-519.14908691 488.82310303 -519.42317383 487.95870605 -519.70556641 487.06811523 C-524.02946476 472.54373538 -525.50446179 458.01752508 -525.39111328 442.91601562 C-525.3750048 440.37575642 -525.39108999 437.83708724 -525.41015625 435.296875 C-525.42506756 424.05808838 -524.27710987 413.37671093 -522 402.375 C-521.79165527 401.36824219 -521.58331055 400.36148437 -521.36865234 399.32421875 C-510.75942077 352.26614751 -481.97755135 312.36531239 -450 277.375 C-449.07649417 276.3466493 -448.15333504 275.31798718 -447.23046875 274.2890625 C-440.21580276 266.51750193 -432.83907741 259.31111 -425 252.375 C-424.48356934 251.91383789 -423.96713867 251.45267578 -423.43505859 250.97753906 C-402.27313738 232.17139148 -375.88356657 213.98466573 -348 207.375 C-346.87585693 207.10647217 -346.87585693 207.10647217 -345.72900391 206.83251953 C-319.64864413 200.7738592 -292.09422302 201.64903674 -268.3515625 215.38671875 C-265.83768789 216.97970099 -263.39244578 218.60620301 -261 220.375 C-261.40992188 219.13105469 -261.81984375 217.88710938 -262.2421875 216.60546875 C-272.02269123 186.59339801 -271.079339 158.2718937 -256.82348633 129.74755859 C-252.62990763 121.68125097 -247.78595771 114.40544941 -242 107.375 C-241.55285645 106.82247559 -241.10571289 106.26995117 -240.64501953 105.70068359 C-220.16929692 80.48735815 -193.49681617 62.47218736 -165 47.375 C-164.21157715 46.95283203 -163.4231543 46.53066406 -162.61083984 46.09570312 C-128.5926077 28.00885573 -91.6446179 14.4315431 -54 6.375 C-53.09540039 6.17680664 -52.19080078 5.97861328 -51.25878906 5.77441406 C-48.67512164 5.21134358 -46.08884462 4.66372793 -43.5 4.125 C-42.42661377 3.89804443 -42.42661377 3.89804443 -41.33154297 3.66650391 C-27.65676899 0.94996631 -13.91500493 -0.04016967 0 0 Z " fill="#73B32A" transform="translate(1017,154.625)"/>
<path d="M0 0 C23.67638458 9.957358 38.65544068 35.59649645 48.29296875 58.12109375 C72.02486969 116.62452644 62.31609646 187.0132146 42.52685547 245.06103516 C41.53531317 247.97389852 40.56860405 250.89404705 39.60546875 253.81640625 C22.50697664 305.04150032 -3.41893176 354.21710242 -47.4921875 387.0546875 C-48.35714844 387.70308594 -49.22210937 388.35148437 -50.11328125 389.01953125 C-66.89969171 401.17520779 -85.63366643 409.73512766 -105.47265625 415.46582031 C-107.12214623 415.94678862 -108.76194887 416.46087461 -110.3984375 416.984375 C-125.65290318 421.66691668 -141.47014182 422.3533739 -157.3046875 422.4296875 C-158.403573 422.44133438 -158.403573 422.44133438 -159.5246582 422.45321655 C-170.17572984 422.542214 -180.09598432 421.36339665 -190.4921875 419.0546875 C-190.33137695 419.80903076 -190.17056641 420.56337402 -190.00488281 421.34057617 C-185.32122064 446.13499158 -196.4952995 472.5295241 -209.90625 492.78125 C-212.3193203 496.29625373 -214.86572229 499.69687728 -217.4921875 503.0546875 C-217.90662109 503.58481445 -218.32105469 504.11494141 -218.74804688 504.66113281 C-229.4572709 518.16803785 -241.82564067 530.55575138 -255.4921875 541.0546875 C-256.45898438 541.82683594 -257.42578125 542.59898437 -258.421875 543.39453125 C-272.43275657 554.45299513 -287.43508932 563.93567859 -302.99414062 572.65283203 C-304.67862356 573.59813119 -306.35955674 574.54978026 -308.03710938 575.50732422 C-349.61973021 599.23194593 -396.66843009 616.28654502 -444.4921875 621.0546875 C-445.760625 621.18488281 -447.0290625 621.31507813 -448.3359375 621.44921875 C-496.42046914 625.43853277 -543.91256688 616.01619922 -586.7421875 593.9296875 C-587.67047363 593.45120361 -588.59875977 592.97271973 -589.55517578 592.47973633 C-592.23577728 591.05855745 -594.86791986 589.57717831 -597.4921875 588.0546875 C-598.42861084 587.5297168 -599.36503418 587.00474609 -600.32983398 586.46386719 C-606.87933367 582.43682179 -606.87933367 582.43682179 -608.44677734 578.90185547 C-608.90297583 576.41192519 -609.03223753 574.08556302 -609.0546875 571.5546875 C-609.10093262 570.64614014 -609.14717773 569.73759277 -609.19482422 568.80151367 C-609.28734213 566.87295961 -609.3584949 564.94327728 -609.40966797 563.01318359 C-609.49174838 560.07043075 -609.64027326 557.13820241 -609.80859375 554.19921875 C-610.45290098 542.48498769 -610.715536 530.78373649 -610.4921875 519.0546875 C-610.46535889 517.54430908 -610.46535889 517.54430908 -610.43798828 516.00341797 C-610.1116697 499.77085498 -609.20293397 483.61706714 -607.9921875 467.4296875 C-607.92647552 466.54158386 -607.86076355 465.65348022 -607.7930603 464.73846436 C-607.60379706 462.20545655 -607.40872997 459.67297975 -607.2109375 457.140625 C-607.15363968 456.38152832 -607.09634186 455.62243164 -607.03730774 454.84033203 C-606.76622094 451.47565373 -606.36837962 448.3115755 -605.4921875 445.0546875 C-604.58748215 445.04660065 -603.68277679 445.03851379 -602.75065613 445.03018188 C-594.09115247 444.95120738 -585.43178314 444.86363908 -576.77245617 444.76716042 C-572.32400102 444.71788074 -567.87556225 444.6715652 -563.42700195 444.6328125 C-537.02334306 444.39949245 -510.73071326 444.06342435 -484.63598633 439.56005859 C-482.39542224 439.17378009 -480.15233005 438.80636389 -477.90820312 438.44140625 C-462.46507506 435.88946278 -447.2996802 432.59994783 -432.3671875 427.8671875 C-431.13363525 427.47917969 -429.90008301 427.09117187 -428.62915039 426.69140625 C-409.74157602 420.66797869 -391.3867878 413.58760092 -373.4921875 405.0546875 C-372.60821289 404.63461426 -371.72423828 404.21454102 -370.81347656 403.78173828 C-339.6728119 388.87467889 -310.45356058 369.84549059 -284.4921875 347.0546875 C-283.39390625 346.10529297 -283.39390625 346.10529297 -282.2734375 345.13671875 C-280.3345898 343.4556147 -278.41295894 341.75638928 -276.4921875 340.0546875 C-275.80769531 339.46300781 -275.12320312 338.87132812 -274.41796875 338.26171875 C-268.49116725 333.0594159 -262.88914403 327.55794228 -257.3046875 321.9921875 C-256.16410889 320.85849731 -256.16410889 320.85849731 -255.00048828 319.7019043 C-250.29293887 314.98152078 -245.80746797 310.13540822 -241.4921875 305.0546875 C-240.94892822 304.41813232 -240.40566895 303.78157715 -239.84594727 303.12573242 C-181.44929866 234.22827465 -150.41457426 151.36457296 -142.4921875 62.0546875 C-141.34556641 61.81347168 -141.34556641 61.81347168 -140.17578125 61.56738281 C-132.74137341 59.99953688 -125.31235192 58.40906434 -117.88818359 56.79345703 C-115.92570768 56.3665374 -113.9627507 55.94179213 -111.99853516 55.52294922 C-75.48558913 47.66705447 -34.44879089 29.45586982 -6.95214844 3.60693359 C-3.12700808 0.06861773 -3.12700808 0.06861773 0 0 Z " fill="#73B32A" transform="translate(1778.4921875,751.9453125)"/>
<path d="M0 0 C4.10442044 2.66544463 7.92942907 5.4949252 11.75 8.5625 C48.88859943 37.55942573 95.06246451 52.50156822 141 60 C141.10022461 60.95962646 141.20044922 61.91925293 141.30371094 62.90795898 C143.34673873 82.35629409 145.44574085 101.7573561 149 121 C149.2155957 122.1748999 149.2155957 122.1748999 149.43554688 123.37353516 C152.1206133 137.56293575 156.54463291 151.28356921 161 165 C161.32516602 166.00289062 161.65033203 167.00578125 161.98535156 168.0390625 C179.5915793 221.7711919 208.82390963 271.89763655 247.4453125 313.26171875 C249.87892067 315.87021925 252.25653947 318.51990864 254.625 321.1875 C260.59535741 327.82832536 266.82709005 334.14825737 273.6171875 339.953125 C275.47515313 341.54914793 277.30781689 343.16381297 279.1328125 344.796875 C318.04540343 379.40205829 364.1781863 405.2864071 413 423 C413.7120459 423.26377441 414.4240918 423.52754883 415.15771484 423.79931641 C463.29185701 441.51719366 514.17602067 445.39059412 564.99493408 445.66955566 C569.97782874 445.69994232 574.96057671 445.74626318 579.94335938 445.79101562 C589.6288277 445.87577049 599.31432741 445.94366462 609 446 C608.91697632 446.93344238 608.91697632 446.93344238 608.83227539 447.88574219 C608.57179821 450.84016604 608.31717303 453.79507037 608.0625 456.75 C607.97548828 457.72710938 607.88847656 458.70421875 607.79882812 459.7109375 C606.39492999 476.14174525 605.87507226 492.39558177 606.32218361 508.87753868 C606.47504673 514.97151445 606.5509883 521.0671113 606.64323902 527.16224957 C606.72803728 532.48068581 606.83871389 537.7963676 607.0012207 543.11303711 C607.15874385 548.31695891 607.24720973 553.51804408 607.28934288 558.72413063 C607.31755774 560.69051411 607.37056851 562.65671484 607.44965553 564.62170982 C608.02897902 579.48960384 608.02897902 579.48960384 604.63122559 583.69354439 C600.83790095 587.00441963 596.58268382 588.99631828 592 591 C590.52743858 591.83530116 589.06221238 592.68432448 587.6171875 593.56640625 C586.37490277 594.24126553 585.12749394 594.90678259 583.875 595.5625 C583.17745605 595.92835205 582.47991211 596.2942041 581.76123047 596.67114258 C562.98046133 606.28515703 542.82875077 612.60228723 522.3125 617.25 C521.23282959 617.49637207 520.15315918 617.74274414 519.04077148 617.99658203 C503.98521021 621.27974037 489.45192888 622.32947507 474.09277344 622.26074219 C471.26735723 622.25006559 468.44258403 622.26067954 465.6171875 622.2734375 C449.00653617 622.2874377 432.62298327 621.07163381 416.3125 617.8125 C415.22783447 617.59819336 414.14316895 617.38388672 413.02563477 617.16308594 C383.67570133 611.16282484 355.9381756 600.97664992 329 588 C328.08154297 587.56461914 327.16308594 587.12923828 326.21679688 586.68066406 C304.65301279 576.43825197 284.14247353 564.274191 265 550 C264.40268066 549.55817383 263.80536133 549.11634766 263.18994141 548.66113281 C256.60339127 543.77180885 250.3061977 538.64474183 244.26953125 533.0859375 C242.1723995 531.15845324 240.03623645 529.29238643 237.875 527.4375 C230.08289115 520.61354896 223.3554063 513.17728943 217 505 C216.2059375 503.98421875 215.411875 502.9684375 214.59375 501.921875 C203.69282985 487.56065481 195.45232158 471.4816263 191 454 C190.63261719 452.81019531 190.26523437 451.62039063 189.88671875 450.39453125 C188.43073825 444.52588631 188.78922776 438.50405714 188.875 432.5 C188.88402344 431.29601563 188.89304687 430.09203125 188.90234375 428.8515625 C188.92576225 425.9008321 188.95856007 422.95052311 189 420 C187.56877808 420.31831787 187.56877808 420.31831787 186.10864258 420.64306641 C175.8844653 422.80422167 166.11844324 423.4874534 155.6875 423.375 C154.92242126 423.37067963 154.15734253 423.36635925 153.36907959 423.36190796 C142.48903623 423.29003588 131.84879813 422.88001571 121.19873047 420.49169922 C118.79725363 419.95466009 116.38681594 419.48051164 113.97265625 419.00390625 C75.67962296 411.0555568 38.6858824 388.45458334 14 358 C13.10041158 356.92435272 12.20065617 355.8488451 11.30078125 354.7734375 C-5.7182753 334.21406205 -18.91776412 310.6734717 -29 286 C-29.4228125 285.01902344 -29.845625 284.03804687 -30.28125 283.02734375 C-49.9844304 237.11640737 -62.52576874 187.35218748 -62.3125 137.25 C-62.31034485 136.33212708 -62.3081897 135.41425415 -62.30596924 134.46856689 C-62.25335786 120.46816091 -61.84300334 106.7552318 -59 93 C-58.80132324 92.03046387 -58.60264648 91.06092773 -58.39794922 90.06201172 C-53.22613337 65.73704413 -44.45077433 42.05212172 -28 23 C-27.02353516 21.80890625 -27.02353516 21.80890625 -26.02734375 20.59375 C-21.84868262 15.6794625 -17.40153444 11.49493571 -12.3125 7.5625 C-11.77802246 7.14943604 -11.24354492 6.73637207 -10.69287109 6.31079102 C-7.29891727 3.77135818 -3.83780082 1.78943936 0 0 Z " fill="#73B32A" transform="translate(546,751)"/>
<path d="M0 0 C20.5073076 15.765189 28.36800809 38.55732373 32.23828125 63.2109375 C32.34213135 63.86312256 32.44598145 64.51530762 32.55297852 65.18725586 C39.43169038 116.31013962 26.20968301 172.54576105 3.23828125 218.2109375 C2.75149902 219.18337402 2.2647168 220.15581055 1.76318359 221.15771484 C-4.48316834 233.55557171 -4.48316834 233.55557171 -7.41992188 238.79541016 C-8.77304877 241.15114742 -8.77304877 241.15114742 -9.77539062 243.46630859 C-10.92101527 245.65631411 -11.69080158 246.84833659 -13.76171875 248.2109375 C-18.21046567 248.70309911 -22.37169245 247.95785572 -26.76171875 247.2109375 C-27.99631836 247.0262793 -29.23091797 246.84162109 -30.50292969 246.65136719 C-34.55917544 246.01876045 -38.59722077 245.31626341 -42.63671875 244.5859375 C-43.36760712 244.45532928 -44.09849548 244.32472107 -44.85153198 244.19015503 C-106.69417775 233.09888812 -192.46989759 215.95308936 -232.34375 161.82421875 C-243.695658 145.46587545 -246.94839585 127.18917647 -244.265625 107.5859375 C-239.52361396 87.43908834 -228.63914821 68.47771607 -211.125 57.1171875 C-191.11942725 45.77837275 -169.19305538 46.38174702 -147.62109375 52.3125 C-138.69810836 54.91508196 -130.21744967 58.36622235 -121.76171875 62.2109375 C-121.34921875 61.29054688 -120.93671875 60.37015625 -120.51171875 59.421875 C-108.06019269 31.97806814 -90.99866775 6.34982519 -61.734375 -4.79296875 C-42.20136701 -11.33819482 -17.84413109 -11.55956441 0 0 Z " fill="#D84050" transform="translate(358.76171875,439.7890625)"/>
<path d="M0 0 C4.10442044 2.66544463 7.92942907 5.4949252 11.75 8.5625 C48.88859943 37.55942573 95.06246451 52.50156822 141 60 C141.10022461 60.95962646 141.20044922 61.91925293 141.30371094 62.90795898 C143.27908612 81.71554627 145.41777367 100.41530543 148.69628906 119.04931641 C149 121 149 121 149 123 C114.92284431 121.90778347 82.13718362 112.26370459 52.37109375 95.85546875 C49.10554648 94.05809337 45.81984948 92.31980573 42.5 90.625 C41.6028125 90.16351562 40.705625 89.70203125 39.78125 89.2265625 C29.81284484 84.83038382 17.47684257 84.10095675 7.0625 87.5625 C-6.56016412 93.4421909 -14.31283517 102.5671317 -20 116 C-21.64713615 121.29785256 -22.90905831 126.6521448 -24.125 132.0625 C-24.46883455 133.5491161 -24.8135705 135.03552399 -25.15917969 136.52172852 C-25.82865014 139.41381943 -26.48842967 142.30784839 -27.13964844 145.20410156 C-27.81950528 148.20365158 -28.525049 151.19283932 -29.2578125 154.1796875 C-38.16242352 191.47872012 -41.26702222 236.42691259 -31.23339844 273.71459961 C-29.90329584 278.70988752 -29.90329584 278.70988752 -31 282 C-49.1011642 235.41165169 -62.52655098 187.53595456 -62.3125 137.25 C-62.31034485 136.33212708 -62.3081897 135.41425415 -62.30596924 134.46856689 C-62.25335786 120.46816091 -61.84300334 106.7552318 -59 93 C-58.80132324 92.03046387 -58.60264648 91.06092773 -58.39794922 90.06201172 C-53.22613337 65.73704413 -44.45077433 42.05212172 -28 23 C-27.02353516 21.80890625 -27.02353516 21.80890625 -26.02734375 20.59375 C-21.84868262 15.6794625 -17.40153444 11.49493571 -12.3125 7.5625 C-11.77802246 7.14943604 -11.24354492 6.73637207 -10.69287109 6.31079102 C-7.29891727 3.77135818 -3.83780082 1.78943936 0 0 Z " fill="#5D8733" transform="translate(546,751)"/>
<path d="M0 0 C19.8 0 39.6 0 60 0 C65.83313853 41.0971124 65.83313853 41.0971124 67.1484375 52.8984375 C67.23379761 53.65937714 67.31915771 54.42031677 67.40710449 55.20431519 C67.79894286 58.72498007 68.17573898 62.2463852 68.53027344 65.77099609 C71.86663651 96.62646679 86.59919214 121.99829203 110.3828125 141.87109375 C131.71112718 159.02354892 156.11452954 168.29638927 183 172 C183 172.33 183 172.66 183 173 C125.76536437 181.33773026 70.65657325 175.64234283 18.75 148.875 C17.3575708 148.15727417 17.3575708 148.15727417 15.93701172 147.42504883 C13.25641022 146.00386995 10.62426764 144.52249081 8 143 C7.06357666 142.4750293 6.12715332 141.95005859 5.16235352 141.40917969 C-1.38714617 137.38213429 -1.38714617 137.38213429 -2.95458984 133.84716797 C-3.41078833 131.35723769 -3.54005003 129.03087552 -3.5625 126.5 C-3.60874512 125.59145264 -3.65499023 124.68290527 -3.70263672 123.74682617 C-3.79515463 121.81827211 -3.8663074 119.88858978 -3.91748047 117.95849609 C-3.99956088 115.01574325 -4.14808576 112.08351491 -4.31640625 109.14453125 C-4.96071348 97.43030019 -5.2233485 85.72904899 -5 74 C-4.98211426 72.99308105 -4.96422852 71.98616211 -4.94580078 70.94873047 C-4.6194822 54.71616748 -3.71074647 38.56237964 -2.5 22.375 C-2.43428802 21.48689636 -2.36857605 20.59879272 -2.3008728 19.68377686 C-2.11160956 17.15076905 -1.91654247 14.61829225 -1.71875 12.0859375 C-1.66145218 11.32684082 -1.60415436 10.56774414 -1.54512024 9.78564453 C-1.27119817 6.38577542 -0.83081998 3.32327993 0 0 Z " fill="#5D8733" transform="translate(1173,1197)"/>
<path d="M0 0 C23.67638458 9.957358 38.65544068 35.59649645 48.29296875 58.12109375 C69.63570505 110.73480301 62.0603227 169.42981049 49.5078125 223.0546875 C49.1778125 223.0546875 48.8478125 223.0546875 48.5078125 223.0546875 C48.49379395 221.79700562 48.49379395 221.79700562 48.47949219 220.51391602 C48.0634045 190.60251428 45.03783594 162.65197722 32.5703125 135.1171875 C32.18842773 134.2718042 31.80654297 133.4264209 31.41308594 132.55541992 C28.10836978 125.28780048 24.70108558 118.07005603 21.2578125 110.8671875 C20.76289307 109.82892822 20.26797363 108.79066895 19.75805664 107.72094727 C11.55063757 90.34245086 11.55063757 90.34245086 -3.4921875 79.0546875 C-14.6230935 75.24980074 -25.98142304 75.9041508 -36.4921875 81.0546875 C-40.47268857 83.11124902 -44.42603875 85.21811764 -48.37304688 87.33813477 C-54.91153469 90.82640509 -61.48288838 93.63586136 -68.4921875 96.0546875 C-69.49507812 96.44914063 -70.49796875 96.84359375 -71.53125 97.25 C-95.19754806 106.06250911 -122.38396277 109.3220491 -147.4921875 109.0546875 C-146.65143868 100.27998985 -145.63112241 91.52915595 -144.59765625 82.77539062 C-143.79170254 75.87593843 -143.08234383 68.97600626 -142.4921875 62.0546875 C-141.34556641 61.81347168 -141.34556641 61.81347168 -140.17578125 61.56738281 C-132.74137341 59.99953688 -125.31235192 58.40906434 -117.88818359 56.79345703 C-115.92570768 56.3665374 -113.9627507 55.94179213 -111.99853516 55.52294922 C-75.48558913 47.66705447 -34.44879089 29.45586982 -6.95214844 3.60693359 C-3.12700808 0.06861773 -3.12700808 0.06861773 0 0 Z " fill="#5D8733" transform="translate(1778.4921875,751.9453125)"/>
<path d="M0 0 C11.36789851 10.66833553 19.38431705 26.43906035 19.96484375 42.11328125 C20.13026982 49.60460088 20.19555105 56.92629375 17.78125 64.09375 C17.45125 65.09664062 17.12125 66.09953125 16.78125 67.1328125 C10.58603404 84.53647838 0.24849742 96.61062254 -16.21875 105.09375 C-33.47444044 112.18456816 -51.06974078 111.76429364 -68.25 104.87890625 C-84.32299402 96.91168939 -95.48892823 82.19906936 -101.96875 65.84375 C-107.15641234 50.28076297 -105.34003889 31.64382361 -98.53125 16.96875 C-89.96805308 0.81257058 -76.62615164 -10.23253526 -59.3046875 -15.8515625 C-37.21487775 -20.58986006 -16.91005019 -14.52835298 0 0 Z " fill="#0D1D0C" transform="translate(985.21875,848.90625)"/>
<path d="M0 0 C12.64016893 10.46258935 21.93105557 25.25794382 23.52734375 41.80859375 C24.97719516 60.89501836 21.04311041 77.3078587 9.0859375 92.609375 C-1.56968673 104.82143873 -15.87081638 112.83856705 -32 115 C-50.70936092 116.11441783 -66.18798889 111.75047512 -80.46875 99.3984375 C-91.60419141 88.84726307 -99.74618025 74.17898255 -100.30078125 58.609375 C-100.3203066 56.65634369 -100.32370905 54.70309674 -100.3125 52.75 C-100.30686035 51.72801514 -100.3012207 50.70603027 -100.29541016 49.65307617 C-100.00834147 31.82213173 -93.37370032 17.50501299 -80.83984375 4.8125 C-58.34265527 -16.13726281 -24.87028503 -18.228985 0 0 Z " fill="#0D1D0C" transform="translate(1419,844)"/>
<path d="M0 0 C27.14312381 19.72773431 33.57062856 60.74935666 38.5859375 91.52734375 C38.93384323 93.85854884 39.27044364 96.19153143 39.5859375 98.52734375 C39.71097656 99.34460938 39.83601563 100.161875 39.96484375 101.00390625 C40.16751672 103.37561123 40.12304437 105.20227693 39.5859375 107.52734375 C22.75042986 123.04796338 -10.51748296 127.95308573 -32.2890625 127.83984375 C-33.42875488 127.8342041 -34.56844727 127.82856445 -35.74267578 127.82275391 C-50.17368776 127.61474303 -64.54134204 125.36776142 -75.4765625 115.02734375 C-82.82080253 106.93259744 -83.0698042 97.84316299 -82.58007812 87.46289062 C-81.6949084 77.14285297 -74.50609965 70.17620182 -67.21484375 63.51953125 C-62.03737451 59.22511332 -54.39892284 53.52734375 -47.4140625 53.52734375 C-47.81238281 52.60115234 -47.81238281 52.60115234 -48.21875 51.65625 C-53.12882338 39.88282587 -55.93127306 27.47452805 -51.64453125 14.9765625 C-47.54680405 6.82013408 -40.69817551 1.0715034 -32.4140625 -2.47265625 C-31.68316406 -2.78976562 -30.95226562 -3.106875 -30.19921875 -3.43359375 C-19.61483679 -7.48876996 -9.60502266 -5.85937466 0 0 Z " fill="#D84050" transform="translate(316.4140625,786.47265625)"/>
<path d="M0 0 C0.33 0 0.66 0 1 0 C1.06628601 1.00840942 1.13257202 2.01681885 1.2008667 3.05578613 C6.36288217 85.31377197 6.36288217 85.31377197 14.5 167.3125 C14.64380096 168.51769287 14.78760193 169.72288574 14.9357605 170.96459961 C18.04223788 197.33139291 18.04223788 197.33139291 25.0625 222.875 C25.35068604 223.68251709 25.63887207 224.49003418 25.93579102 225.32202148 C31.17005899 239.36777949 38.30673209 253.48814085 48 265 C48.51679573 265.71884589 49.03359146 266.43769178 49.56604767 267.17832088 C53.27672779 272.00951872 53.27672779 272.00951872 58.51885986 274.83619881 C61.44188384 275.14427368 64.25087076 275.17990325 67.18945312 275.11352539 C68.28302124 275.1245932 69.37658936 275.13566101 70.5032959 275.14706421 C74.09721096 275.17296065 77.68749153 275.13571063 81.28125 275.09765625 C83.78089566 275.10331141 86.28053524 275.11292497 88.78015137 275.12632751 C94.67352833 275.14840823 100.56572437 275.13074774 106.45900297 275.09355396 C113.83214236 275.04947864 121.20491499 275.06760265 128.578125 275.08398438 C141.71906264 275.10570091 154.8592614 275.07246464 168 275 C168 275.33 168 275.66 168 276 C104.97 276 41.94 276 -23 276 C-23 224.07198703 -23 224.07198703 -22.3125 207.25 C-22.25006607 205.65052521 -22.25006607 205.65052521 -22.18637085 204.01873779 C-20.23286883 154.70949991 -16.82589223 105.44669253 -12.66051865 56.27880096 C-12.43902571 53.64315507 -12.2229248 51.00711657 -12.00820923 48.37091064 C-11.670189 44.23571465 -11.31556828 40.10226591 -10.94788742 35.96960449 C-10.8157249 34.45961545 -10.68859253 32.94917571 -10.56706619 31.43829346 C-9.61321445 19.67106779 -7.2085669 9.59355743 0 0 Z " fill="#5D8733" transform="translate(1182,216)"/>
<path d="M0 0 C2.26969807 1.42728058 3.81286009 2.48509519 5.02734375 4.9140625 C5.51336963 9.20729109 5.48975983 11.23488889 3.02734375 14.8515625 C-0.09307584 16.99685097 -2.01144405 17.57665227 -5.79296875 17.35546875 C-9.0673569 16.69237581 -11.8728634 15.26151474 -14.87109375 13.82421875 C-17.82062007 12.54682166 -19.81771037 12.26873266 -22.97265625 12.9140625 C-25.99299362 14.85098619 -25.99299362 14.85098619 -27.97265625 17.9140625 C-28.36810177 21.73670251 -28.18526502 24.27623618 -26.97265625 27.9140625 C-22.04390357 30.61400423 -16.83173665 30.24498947 -11.34765625 30.375 C-7.42869698 31.00094488 -5.77567772 32.16256716 -2.97265625 34.9140625 C-1.54603406 37.76730687 -1.66231757 39.74860799 -1.97265625 42.9140625 C-4.13846196 46.86901206 -6.49404581 48.26865923 -10.53515625 49.9140625 C-13.51006476 51.14219085 -14.85265998 51.77952123 -17.03515625 54.2265625 C-18.20111255 57.56897055 -18.17934242 60.40039753 -17.97265625 63.9140625 C-14.07519489 65.21321629 -10.02558201 65.48633248 -5.97265625 64.9140625 C-2.69569303 63.11494544 -0.21114631 61.1346658 2.52734375 58.6015625 C5.02734375 56.9140625 5.02734375 56.9140625 8.02734375 56.8515625 C11.83588848 58.20042209 13.5944785 59.69409378 16.02734375 62.9140625 C16.82434167 66.17450854 16.54873303 67.95091431 14.953125 70.8984375 C10.38237146 77.56046732 3.98738525 82.1971908 -3.97265625 83.9140625 C-12.7564816 84.81889395 -19.98707638 83.41583884 -27.26953125 78.30078125 C-32.31148481 74.15129028 -35.57637257 70.26304813 -36.37109375 63.546875 C-36.32486531 56.6280186 -35.98275927 51.18511046 -32.97265625 44.9140625 C-33.49214844 44.5015625 -34.01164062 44.0890625 -34.546875 43.6640625 C-40.62322649 38.63225942 -46.38725749 32.76805012 -47.2109375 24.53125 C-47.45350545 15.56900257 -45.34244152 9.57163942 -39.72265625 2.6015625 C-28.88845149 -8.80166562 -13.0809018 -7.20097168 0 0 Z " fill="#0F1F0E" transform="translate(1160.97265625,945.0859375)"/>
<path d="M0 0 C7.54316359 3.84449463 11.35257767 8.21964858 14.1875 16.25 C15.47299761 22.89345162 13.99470903 28.14086174 10.7421875 33.984375 C7.10703737 39.28182996 2.5893297 43.0421076 -3.8125 44.25 C-11.25172355 44.92342335 -17.69874611 44.91719605 -23.8125 40.25 C-28.51665484 35.81885415 -31.43292386 31.55830574 -32.18359375 25.015625 C-32.32903421 17.31583605 -32.1032069 11.18532176 -26.8125 5.25 C-18.72540091 -1.43495757 -10.04281204 -4.28964333 0 0 Z " fill="#FCFCFC" transform="translate(1372.8125,858.75)"/>
<path d="M0 0 C4.48497257 3.41443892 7.03334964 7.71002613 8.9921875 12.93359375 C9.92562559 20.40109844 8.96252954 26.89174189 4.73046875 33.1796875 C0.26660625 38.64666516 -3.74628068 41.47632069 -10.7734375 42.27734375 C-18.33309748 42.62895584 -23.75460131 41.66063423 -29.7578125 36.93359375 C-34.99480621 31.69660004 -36.9304388 26.24815301 -37.1953125 18.99609375 C-36.98556108 12.26726812 -35.53179575 7.85814812 -30.88671875 2.9609375 C-21.70007452 -5.49633233 -10.89716399 -6.61094616 0 0 Z " fill="#FDFDFD" transform="translate(949.7578125,861.06640625)"/>
<path d="M0 0 C2.93143764 2.63829388 3.86879459 4.10030574 4.4375 8 C3.93911153 11.41752096 3.11569184 13.27982477 1 16 C-1.95811617 17.83829462 -4.07457856 18.2213879 -7.52734375 18.08984375 C-8.39641357 18.06784912 -9.2654834 18.04585449 -10.16088867 18.02319336 C-11.53531128 17.98077515 -11.53531128 17.98077515 -12.9375 17.9375 C-21.84739436 17.78492544 -30.83384607 17.91692304 -39 22 C-42.73378439 22.57950681 -46.44604172 23.03003198 -49.703125 20.87109375 C-51.95903999 18.38829076 -52.96079248 16.21346315 -53.5625 12.9375 C-52.82002185 9.06011408 -51.94898689 7.668131 -49 5 C-36.0959946 -2.18314416 -14.12928341 -5.70605676 0 0 Z " fill="#112110" transform="translate(954,784)"/>
<path d="M0 0 C3.09307735 2.5996705 3.91572162 3.33781274 4.4375 7.4375 C3.98239299 11.14337137 3.24929057 13.05862003 1 16 C-4.69489939 18.8474497 -11.05031874 16.77059253 -16.75 15 C-24.12339855 12.72328803 -31.1012076 12.74357257 -38.76660156 13.23632812 C-43.075707 13.42219192 -46.05973542 13.4712603 -49.57421875 10.77734375 C-52.82511211 7.05530643 -52.82511211 7.05530643 -52.75 3.5 C-52.51538983 0.06668047 -51.888889 -1.6979797 -49.3125 -4 C-36.16552916 -11.93779372 -12.81553556 -6.45121027 0 0 Z " fill="#10200F" transform="translate(1418,789)"/>
<path d="M0 0 C2.91685902 1.71206943 4.5938993 2.82518388 5.71362305 6.06445312 C6.1241545 10.27266305 5.4142573 14.13031374 4.70703125 18.28125 C4.55973068 19.17235474 4.41243011 20.06345947 4.26066589 20.98156738 C3.94657908 22.86170463 3.62773111 24.74105189 3.30444336 26.61962891 C2.81467724 29.48725205 2.35096375 32.35830519 1.88867188 35.23046875 C1.57970707 37.06016369 1.26921081 38.88960082 0.95703125 40.71875 C0.82142288 41.57408325 0.68581451 42.4294165 0.5460968 43.31066895 C-0.31991194 48.17931262 -1.27849212 51.47431525 -5 55 C-9.00803597 56.1659741 -11.05282711 56.43240501 -14.875 54.6875 C-17 53 -17 53 -18 51 C-18.70971905 42.80869965 -17.41817482 34.79007184 -16.02856445 26.73730469 C-15.6859423 24.74092363 -15.36268218 22.74204002 -15.04101562 20.7421875 C-13.83665596 13.59512181 -12.72283177 7.22038925 -8.75 1.0625 C-5.77389615 -0.74442019 -3.38395012 -0.40840777 0 0 Z " fill="#D84452" transform="translate(898,984)"/>
<path d="M0 0 C3.88696704 0.14889591 5.62984458 0.55020565 8.9375 2.82421875 C11.95992591 7.26340681 11.2064284 11.13559838 10.3515625 16.3046875 C10.09117188 17.50738281 9.83078125 18.71007812 9.5625 19.94921875 C8.58169906 24.58166992 7.67074794 29.20760266 6.9375 33.88671875 C6.22036431 38.18953292 5.47778025 42.48352511 4.625 46.76171875 C4.42261719 47.81359375 4.22023438 48.86546875 4.01171875 49.94921875 C2.66404517 53.47767322 1.12043684 54.78544752 -2.0625 56.76171875 C-5.8819882 56.76171875 -8.21314668 56.26261943 -11.5 54.32421875 C-16.04769642 46.86599661 -12.16865113 34.57949125 -10.77368164 26.38330078 C-10.37399221 24.00572385 -10.00410262 21.62464364 -9.63476562 19.2421875 C-9.37941358 17.71193655 -9.12231255 16.1819762 -8.86328125 14.65234375 C-8.757845 13.94909973 -8.65240875 13.24585571 -8.54377747 12.52130127 C-7.59883813 7.25004891 -5.37613846 1.98550568 0 0 Z " fill="#D84352" transform="translate(1433.0625,983.23828125)"/>
<path d="M0 0 C2.5 1.3125 2.5 1.3125 4 4 C5.17877577 10.97781059 3.66619337 18.31236262 2.6875 25.25 C2.57011475 26.10142578 2.45272949 26.95285156 2.33178711 27.83007812 C1.54156676 32.98995982 0.43346413 37.36139677 -2 42 C-5.75047482 44.50031654 -7.55856266 44.53603554 -12 44 C-14.9375 42 -14.9375 42 -17 39 C-17.49739218 31.86242224 -16.34379991 24.86564307 -15.3125 17.8125 C-15.16361328 16.65041016 -15.01472656 15.48832031 -14.86132812 14.29101562 C-13.47280421 4.82182705 -13.47280421 4.82182705 -10.609375 1.734375 C-6.56396811 -0.95448826 -4.7837166 -0.68338809 0 0 Z " fill="#D84453" transform="translate(1404,987)"/>
<path d="M0 0 C4.74393301 2.99799872 4.74393301 2.99799872 5.62890625 6.4609375 C5.45949841 13.89495199 4.527571 21.10590569 3.3125 28.4375 C3.16433838 29.3847998 3.01617676 30.33209961 2.86352539 31.30810547 C1.78345404 37.24665295 0.47527297 40.85748633 -4 45 C-8.36009631 45.85644749 -10.1944781 45.51416292 -13.9375 43.125 C-18.62082509 36.0290529 -15.57254823 25.63759402 -14.25 17.6875 C-14.09273437 16.62982422 -13.93546875 15.57214844 -13.7734375 14.48242188 C-12.1974974 4.87524859 -12.1974974 4.87524859 -8 1 C-5.14675563 -0.42662219 -3.16545451 -0.31033868 0 0 Z " fill="#D84453" transform="translate(931,992)"/>
<path d="M0 0 C3.58341327 0.93920106 4.94051801 2.44993383 6.9375 5.5078125 C8.01893026 13.88889702 6.44060665 26.22953547 1.9375 33.5078125 C-1.28205988 35.80749813 -4.18809532 36.06129888 -8.0625 35.5078125 C-10.9375 33.5703125 -10.9375 33.5703125 -13.0625 30.5078125 C-13.43525985 27.20622529 -13.3988172 24.76645351 -13.0625 21.5078125 C-12.91941406 19.67283203 -12.91941406 19.67283203 -12.7734375 17.80078125 C-11.73742529 6.52980281 -11.73742529 6.52980281 -8.9375 2.5703125 C-5.69846627 0.24665787 -3.9193761 -0.3414608 0 0 Z " fill="#D94554" transform="translate(961.0625,997.4921875)"/>
<path d="M0 0 C3.0625 1.6875 3.0625 1.6875 5 5 C5.29413602 9.43707322 4.70962379 13.62238838 4 18 C3.71382812 19.78083984 3.71382812 19.78083984 3.421875 21.59765625 C1.73637169 30.28975763 1.73637169 30.28975763 -1.421875 33.3359375 C-4.65593269 35.42337473 -6.21961218 35.70882272 -10 35 C-12.875 33.25 -12.875 33.25 -15 30 C-15.60328779 25.94491094 -15.3525055 22.07286755 -15 18 C-14.90460938 16.84628906 -14.80921875 15.69257812 -14.7109375 14.50390625 C-14.13730382 9.5492859 -13.59039429 5.92032051 -10.875 1.6875 C-7.07468959 -0.54311698 -4.29245399 -1.01049722 0 0 Z " fill="#D84554" transform="translate(1371,991)"/>
<path d="M0 0 C2.76567375 2.0929423 3.95938435 3.54525241 5.3125 6.75 C5.84454782 11.53843042 5.81033872 13.73517492 3.6875 18.0625 C0.14029476 22.07644277 -2.8722745 23.4529631 -8.125 24.3125 C-12.91869566 23.55560069 -15.45965173 21.26963116 -18.6875 17.75 C-20.55455779 14.01588442 -20.23630053 9.816113 -19.6875 5.75 C-17.94208017 2.04850621 -15.42245031 0.10965653 -11.75 -1.6875 C-7.23557537 -2.51668003 -4.14042731 -1.92578014 0 0 Z " fill="#FAFAF9" transform="translate(977.6875,912.25)"/>
<path d="M0 0 C3.22531565 1.6388799 5.28267527 3.98922425 7.375 6.9375 C8.69510318 11.29384051 8.41426487 14.65995188 6.375 18.6875 C4.17019833 22.18423808 1.97605853 23.67464716 -2 25 C-6.28359614 25.53544952 -8.40228336 25.31035287 -12.25 23.3125 C-15.13668817 20.88505768 -16.66840397 19.52481301 -18 16 C-18.29550708 11.16442964 -17.65509528 7.30838884 -14.5625 3.5 C-10.16680615 -0.7884818 -5.94977311 -0.8212877 0 0 Z " fill="#FAFAFA" transform="translate(1403,911)"/>
</svg>
